<?xml version="1.0" encoding="utf-8"?>
<!-- Generator: Adobe Illustrator 23.0.1, SVG Export Plug-In . SVG Version: 6.00 Build 0)  -->
<svg version="1.1" id="Layer_1" xmlns="http://www.w3.org/2000/svg" xmlns:xlink="http://www.w3.org/1999/xlink" x="0px" y="0px"
	 viewBox="0 0 500 500" style="enable-background:new 0 0 500 500;" xml:space="preserve">
<style type="text/css">
	.st0{fill:#5B87C7;}
	.st1{fill:#69B8E9;}
	.st2{fill:#455EA9;}
	.st3{fill:#65ACE9;}
	.st4{fill:#FFEE7D;}
	.st5{fill:#F2BA3A;}
</style>
<polygon class="st0" points="52,75.33 173.33,300.67 190,292.33 241.67,167.33 "/>
<path class="st1" d="M246,158l25-65.67c0,0-10.67-10.33-23-12l-184.33,1l178,86L246,158z"/>
<path class="st2" d="M313.33,313l-177.67,95L246,158C246,158,419,225,313.33,313z"/>
<path class="st3" d="M271,92.33c0,0,72.33,110.33,76.33,150l-116.33-50L271,92.33z"/>
<path class="st4" d="M289.5,121.5l57.33-31c0,0,25.67-19,58.67,4l57,33.67c0,0-108.33,5.83-114.5,98.67L289.5,121.5z"/>
<path class="st5" d="M313.33,313L380,278c0,0,15.67-3,16.67-21.33l-0.33-69.33c0,0,0.67-47,65.33-61.33
	C461.67,126,275.33,148.67,313.33,313z"/>
</svg>
